<svg width="320" height="57" viewBox="0 0 320 57" fill="none" xmlns="http://www.w3.org/2000/svg">
<path d="M62.4148 10.8182H63.6477V17.5597C63.6477 18.2557 63.4837 18.8771 63.1555 19.424C62.8307 19.9676 62.3717 20.3968 61.7784 20.7116C61.1851 21.0232 60.4891 21.179 59.6903 21.179C58.8916 21.179 58.1955 21.0232 57.6023 20.7116C57.009 20.3968 56.5483 19.9676 56.2202 19.424C55.8954 18.8771 55.733 18.2557 55.733 17.5597V10.8182H56.9659V17.4602C56.9659 17.9574 57.0753 18.3999 57.294 18.7876C57.5128 19.1721 57.8243 19.4754 58.2287 19.6974C58.6364 19.9162 59.1236 20.0256 59.6903 20.0256C60.2571 20.0256 60.7443 19.9162 61.152 19.6974C61.5597 19.4754 61.8712 19.1721 62.0866 18.7876C62.3054 18.3999 62.4148 17.9574 62.4148 17.4602V10.8182ZM67.1241 16.4062V21H65.9508V13.3636H67.0843V14.5568H67.1838C67.3627 14.169 67.6345 13.8575 67.9991 13.6222C68.3637 13.3835 68.8343 13.2642 69.411 13.2642C69.9281 13.2642 70.3805 13.3703 70.7683 13.5824C71.1561 13.7912 71.4577 14.1094 71.6731 14.5369C71.8886 14.9612 71.9963 15.4981 71.9963 16.1477V21H70.823V16.2273C70.823 15.6274 70.6672 15.16 70.3556 14.8253C70.0441 14.4872 69.6165 14.3182 69.073 14.3182C68.6984 14.3182 68.3637 14.3994 68.0687 14.5618C67.777 14.7242 67.5467 14.9612 67.3777 15.2727C67.2086 15.5843 67.1241 15.9621 67.1241 16.4062ZM76.3874 21.179C75.9035 21.179 75.4644 21.0878 75.07 20.9055C74.6755 20.7199 74.3623 20.4531 74.1303 20.1051C73.8983 19.7538 73.7823 19.3295 73.7823 18.8324C73.7823 18.3949 73.8685 18.0402 74.0408 17.7685C74.2132 17.4934 74.4435 17.2779 74.7319 17.1222C75.0202 16.9664 75.3384 16.8504 75.6864 16.7741C76.0378 16.6946 76.3907 16.6316 76.7454 16.5852C77.2094 16.5256 77.5856 16.4808 77.8739 16.451C78.1656 16.4179 78.3777 16.3632 78.5103 16.2869C78.6462 16.2107 78.7141 16.0781 78.7141 15.8892V15.8494C78.7141 15.3589 78.5799 14.9777 78.3114 14.706C78.0463 14.4342 77.6436 14.2983 77.1033 14.2983C76.5432 14.2983 76.104 14.4209 75.7859 14.6662C75.4677 14.9115 75.244 15.1733 75.1147 15.4517L74.0011 15.054C74.1999 14.59 74.4651 14.2287 74.7965 13.9702C75.1313 13.7083 75.4959 13.526 75.8903 13.4233C76.288 13.3172 76.6791 13.2642 77.0636 13.2642C77.3088 13.2642 77.5906 13.294 77.9087 13.3537C78.2302 13.41 78.5401 13.5277 78.8384 13.7067C79.14 13.8857 79.3903 14.1558 79.5891 14.517C79.788 14.8783 79.8874 15.3622 79.8874 15.9688V21H78.7141V19.9659H78.6545C78.5749 20.1316 78.4424 20.3089 78.2567 20.4979C78.0711 20.6868 77.8242 20.8475 77.516 20.9801C77.2077 21.1127 76.8316 21.179 76.3874 21.179ZM76.5664 20.125C77.0304 20.125 77.4215 20.0339 77.7397 19.8516C78.0612 19.6693 78.3031 19.4339 78.4656 19.1456C78.6313 18.8572 78.7141 18.554 78.7141 18.2358V17.1619C78.6644 17.2216 78.555 17.2763 78.386 17.326C78.2203 17.3724 78.0281 17.4138 77.8093 17.4503C77.5939 17.4834 77.3834 17.5133 77.1779 17.5398C76.9757 17.563 76.8117 17.5829 76.6857 17.5994C76.3808 17.6392 76.0958 17.7038 75.8306 17.7933C75.5688 17.8795 75.3567 18.0104 75.1942 18.1861C75.0352 18.3584 74.9556 18.5937 74.9556 18.892C74.9556 19.2997 75.1064 19.608 75.408 19.8168C75.7129 20.0223 76.0991 20.125 76.5664 20.125ZM89.1681 21.1591C88.4324 21.1591 87.7976 20.9967 87.264 20.6719C86.7337 20.3438 86.3244 19.8864 86.036 19.2997C85.751 18.7098 85.6085 18.0237 85.6085 17.2415C85.6085 16.4593 85.751 15.7699 86.036 15.1733C86.3244 14.5734 86.7254 14.1061 87.2392 13.7713C87.7562 13.4332 88.3594 13.2642 89.0488 13.2642C89.4466 13.2642 89.8393 13.3305 90.2271 13.4631C90.6149 13.5956 90.9679 13.8111 91.286 14.1094C91.6042 14.4044 91.8578 14.7955 92.0467 15.2827C92.2356 15.7699 92.3301 16.3698 92.3301 17.0824V17.5795H86.4437V16.5653H91.1369C91.1369 16.1345 91.0507 15.75 90.8784 15.4119C90.7093 15.0739 90.4674 14.8071 90.1525 14.6115C89.841 14.416 89.4731 14.3182 89.0488 14.3182C88.5815 14.3182 88.1771 14.4342 87.8358 14.6662C87.4977 14.8949 87.2375 15.1932 87.0552 15.5611C86.8729 15.929 86.7818 16.3234 86.7818 16.7443V17.4205C86.7818 17.9972 86.8812 18.486 87.0801 18.8871C87.2823 19.2848 87.5623 19.5881 87.9203 19.7969C88.2782 20.0024 88.6942 20.1051 89.1681 20.1051C89.4764 20.1051 89.7548 20.062 90.0034 19.9759C90.2553 19.8864 90.4724 19.7538 90.6547 19.5781C90.8369 19.3991 90.9778 19.1771 91.0772 18.9119L92.2108 19.2301C92.0914 19.6146 91.8909 19.9527 91.6092 20.2443C91.3275 20.5327 90.9795 20.758 90.5652 20.9205C90.1509 21.0795 89.6852 21.1591 89.1681 21.1591ZM94.1149 21V13.3636H95.2484V14.5568H95.3478C95.5069 14.1491 95.7638 13.8326 96.1184 13.6072C96.4731 13.3786 96.899 13.2642 97.3961 13.2642C97.8999 13.2642 98.3192 13.3786 98.6539 13.6072C98.992 13.8326 99.2555 14.1491 99.4444 14.5568H99.524C99.7195 14.1624 100.013 13.8492 100.404 13.6172C100.795 13.3819 101.264 13.2642 101.811 13.2642C102.494 13.2642 103.052 13.478 103.486 13.9055C103.921 14.3298 104.138 14.991 104.138 15.8892V21H102.964V15.8892C102.964 15.3258 102.81 14.9231 102.502 14.6811C102.194 14.4392 101.831 14.3182 101.413 14.3182C100.876 14.3182 100.46 14.4806 100.165 14.8054C99.8703 15.1269 99.7228 15.5346 99.7228 16.0284V21H98.5297V15.7699C98.5297 15.3357 98.3888 14.986 98.1071 14.7209C97.8253 14.4524 97.4624 14.3182 97.0183 14.3182C96.7134 14.3182 96.4283 14.3994 96.1632 14.5618C95.9013 14.7242 95.6892 14.9496 95.5268 15.2379C95.3677 15.523 95.2882 15.8527 95.2882 16.2273V21H94.1149ZM106.283 23.8636V13.3636H107.416V14.5767H107.556C107.642 14.4441 107.761 14.2751 107.914 14.0696C108.069 13.8608 108.291 13.6752 108.58 13.5128C108.871 13.3471 109.266 13.2642 109.763 13.2642C110.406 13.2642 110.973 13.425 111.463 13.7464C111.954 14.0679 112.337 14.5237 112.612 15.1136C112.887 15.7036 113.024 16.3996 113.024 17.2017C113.024 18.0104 112.887 18.7114 112.612 19.3047C112.337 19.8946 111.955 20.352 111.468 20.6768C110.981 20.9983 110.419 21.1591 109.783 21.1591C109.292 21.1591 108.9 21.0779 108.605 20.9155C108.31 20.7498 108.083 20.5625 107.923 20.3537C107.764 20.1416 107.642 19.9659 107.556 19.8267H107.456V23.8636H106.283ZM107.436 17.1818C107.436 17.7585 107.521 18.2673 107.69 18.7081C107.859 19.1456 108.106 19.4886 108.431 19.7372C108.755 19.9825 109.153 20.1051 109.624 20.1051C110.114 20.1051 110.524 19.9759 110.852 19.7173C111.183 19.4555 111.432 19.1042 111.597 18.6634C111.767 18.2192 111.851 17.7254 111.851 17.1818C111.851 16.6449 111.768 16.161 111.602 15.7301C111.44 15.2959 111.193 14.9529 110.862 14.701C110.534 14.4458 110.121 14.3182 109.624 14.3182C109.146 14.3182 108.745 14.4392 108.421 14.6811C108.096 14.9197 107.851 15.2545 107.685 15.6854C107.519 16.1129 107.436 16.6117 107.436 17.1818ZM114.814 21V13.3636H115.948V14.517H116.027C116.166 14.1392 116.418 13.8326 116.783 13.5973C117.147 13.362 117.558 13.2443 118.016 13.2443C118.102 13.2443 118.21 13.246 118.339 13.2493C118.468 13.2526 118.566 13.2576 118.632 13.2642V14.4574C118.593 14.4474 118.501 14.4325 118.359 14.4126C118.22 14.3894 118.072 14.3778 117.916 14.3778C117.545 14.3778 117.214 14.4557 116.922 14.6115C116.634 14.764 116.405 14.9761 116.236 15.2479C116.07 15.5163 115.987 15.8229 115.987 16.1676V21H114.814ZM122.992 21.1591C122.257 21.1591 121.622 20.9967 121.088 20.6719C120.558 20.3438 120.149 19.8864 119.86 19.2997C119.575 18.7098 119.433 18.0237 119.433 17.2415C119.433 16.4593 119.575 15.7699 119.86 15.1733C120.149 14.5734 120.55 14.1061 121.063 13.7713C121.58 13.4332 122.184 13.2642 122.873 13.2642C123.271 13.2642 123.664 13.3305 124.051 13.4631C124.439 13.5956 124.792 13.8111 125.11 14.1094C125.428 14.4044 125.682 14.7955 125.871 15.2827C126.06 15.7699 126.154 16.3698 126.154 17.0824V17.5795H120.268V16.5653H124.961C124.961 16.1345 124.875 15.75 124.703 15.4119C124.534 15.0739 124.292 14.8071 123.977 14.6115C123.665 14.416 123.297 14.3182 122.873 14.3182C122.406 14.3182 122.001 14.4342 121.66 14.6662C121.322 14.8949 121.062 15.1932 120.879 15.5611C120.697 15.929 120.606 16.3234 120.606 16.7443V17.4205C120.606 17.9972 120.705 18.486 120.904 18.8871C121.106 19.2848 121.387 19.5881 121.744 19.7969C122.102 20.0024 122.518 20.1051 122.992 20.1051C123.301 20.1051 123.579 20.062 123.828 19.9759C124.079 19.8864 124.297 19.7538 124.479 19.5781C124.661 19.3991 124.802 19.1771 124.901 18.9119L126.035 19.2301C125.916 19.6146 125.715 19.9527 125.433 20.2443C125.152 20.5327 124.804 20.758 124.389 20.9205C123.975 21.0795 123.509 21.1591 122.992 21.1591ZM133.348 15.0739L132.294 15.3722C132.228 15.1965 132.13 15.0258 132.001 14.8601C131.875 14.6911 131.703 14.5518 131.484 14.4425C131.265 14.3331 130.985 14.2784 130.644 14.2784C130.176 14.2784 129.787 14.3861 129.475 14.6016C129.167 14.8137 129.013 15.0838 129.013 15.4119C129.013 15.7036 129.119 15.9339 129.331 16.103C129.543 16.272 129.875 16.4129 130.325 16.5256L131.459 16.804C132.142 16.9697 132.651 17.2232 132.985 17.5646C133.32 17.9027 133.487 18.3385 133.487 18.8722C133.487 19.3097 133.361 19.7008 133.11 20.0455C132.861 20.3902 132.513 20.6619 132.066 20.8608C131.618 21.0597 131.098 21.1591 130.504 21.1591C129.726 21.1591 129.081 20.9901 128.57 20.652C128.06 20.3139 127.737 19.8201 127.601 19.1705L128.715 18.892C128.821 19.303 129.021 19.6113 129.316 19.8168C129.615 20.0223 130.004 20.125 130.485 20.125C131.031 20.125 131.466 20.009 131.787 19.777C132.112 19.5417 132.274 19.2599 132.274 18.9318C132.274 18.6667 132.182 18.4446 131.996 18.2656C131.81 18.0833 131.525 17.9474 131.141 17.858L129.868 17.5597C129.169 17.3939 128.655 17.1371 128.327 16.7891C128.002 16.4377 127.84 15.9986 127.84 15.4716C127.84 15.0407 127.961 14.6596 128.203 14.3281C128.448 13.9967 128.781 13.7365 129.202 13.5476C129.626 13.3587 130.107 13.2642 130.644 13.2642C131.399 13.2642 131.993 13.4299 132.423 13.7614C132.858 14.0928 133.166 14.5303 133.348 15.0739ZM137.501 21.179C137.017 21.179 136.578 21.0878 136.183 20.9055C135.789 20.7199 135.476 20.4531 135.244 20.1051C135.012 19.7538 134.896 19.3295 134.896 18.8324C134.896 18.3949 134.982 18.0402 135.154 17.7685C135.326 17.4934 135.557 17.2779 135.845 17.1222C136.134 16.9664 136.452 16.8504 136.8 16.7741C137.151 16.6946 137.504 16.6316 137.859 16.5852C138.323 16.5256 138.699 16.4808 138.987 16.451C139.279 16.4179 139.491 16.3632 139.624 16.2869C139.759 16.2107 139.827 16.0781 139.827 15.8892V15.8494C139.827 15.3589 139.693 14.9777 139.425 14.706C139.16 14.4342 138.757 14.2983 138.217 14.2983C137.656 14.2983 137.217 14.4209 136.899 14.6662C136.581 14.9115 136.357 15.1733 136.228 15.4517L135.114 15.054C135.313 14.59 135.578 14.2287 135.91 13.9702C136.245 13.7083 136.609 13.526 137.004 13.4233C137.401 13.3172 137.792 13.2642 138.177 13.2642C138.422 13.2642 138.704 13.294 139.022 13.3537C139.344 13.41 139.653 13.5277 139.952 13.7067C140.253 13.8857 140.504 14.1558 140.702 14.517C140.901 14.8783 141.001 15.3622 141.001 15.9688V21H139.827V19.9659H139.768C139.688 20.1316 139.556 20.3089 139.37 20.4979C139.184 20.6868 138.938 20.8475 138.629 20.9801C138.321 21.1127 137.945 21.179 137.501 21.179ZM137.68 20.125C138.144 20.125 138.535 20.0339 138.853 19.8516C139.174 19.6693 139.416 19.4339 139.579 19.1456C139.745 18.8572 139.827 18.554 139.827 18.2358V17.1619C139.778 17.2216 139.668 17.2763 139.499 17.326C139.334 17.3724 139.141 17.4138 138.923 17.4503C138.707 17.4834 138.497 17.5133 138.291 17.5398C138.089 17.563 137.925 17.5829 137.799 17.5994C137.494 17.6392 137.209 17.7038 136.944 17.7933C136.682 17.8795 136.47 18.0104 136.308 18.1861C136.148 18.3584 136.069 18.5937 136.069 18.892C136.069 19.2997 136.22 19.608 136.521 19.8168C136.826 20.0223 137.212 20.125 137.68 20.125ZM149.963 21.1591C149.327 21.1591 148.765 20.9983 148.278 20.6768C147.791 20.352 147.41 19.8946 147.134 19.3047C146.859 18.7114 146.722 18.0104 146.722 17.2017C146.722 16.3996 146.859 15.7036 147.134 15.1136C147.41 14.5237 147.792 14.0679 148.283 13.7464C148.773 13.425 149.34 13.2642 149.983 13.2642C150.48 13.2642 150.873 13.3471 151.161 13.5128C151.453 13.6752 151.675 13.8608 151.828 14.0696C151.983 14.2751 152.104 14.4441 152.191 14.5767H152.29V10.8182H153.463V21H152.33V19.8267H152.191C152.104 19.9659 151.982 20.1416 151.823 20.3537C151.664 20.5625 151.436 20.7498 151.142 20.9155C150.847 21.0779 150.454 21.1591 149.963 21.1591ZM150.122 20.1051C150.593 20.1051 150.991 19.9825 151.316 19.7372C151.64 19.4886 151.887 19.1456 152.056 18.7081C152.225 18.2673 152.31 17.7585 152.31 17.1818C152.31 16.6117 152.227 16.1129 152.061 15.6854C151.896 15.2545 151.65 14.9197 151.325 14.6811C151.001 14.4392 150.6 14.3182 150.122 14.3182C149.625 14.3182 149.211 14.4458 148.879 14.701C148.551 14.9529 148.304 15.2959 148.139 15.7301C147.976 16.161 147.895 16.6449 147.895 17.1818C147.895 17.7254 147.978 18.2192 148.144 18.6634C148.313 19.1042 148.561 19.4555 148.889 19.7173C149.221 19.9759 149.632 20.1051 150.122 20.1051ZM158.977 21.1591C158.241 21.1591 157.606 20.9967 157.073 20.6719C156.542 20.3438 156.133 19.8864 155.845 19.2997C155.56 18.7098 155.417 18.0237 155.417 17.2415C155.417 16.4593 155.56 15.7699 155.845 15.1733C156.133 14.5734 156.534 14.1061 157.048 13.7713C157.565 13.4332 158.168 13.2642 158.857 13.2642C159.255 13.2642 159.648 13.3305 160.036 13.4631C160.423 13.5956 160.776 13.8111 161.095 14.1094C161.413 14.4044 161.666 14.7955 161.855 15.2827C162.044 15.7699 162.139 16.3698 162.139 17.0824V17.5795H156.252V16.5653H160.945C160.945 16.1345 160.859 15.75 160.687 15.4119C160.518 15.0739 160.276 14.8071 159.961 14.6115C159.65 14.416 159.282 14.3182 158.857 14.3182C158.39 14.3182 157.986 14.4342 157.644 14.6662C157.306 14.8949 157.046 15.1932 156.864 15.5611C156.682 15.929 156.59 16.3234 156.59 16.7443V17.4205C156.59 17.9972 156.69 18.486 156.889 18.8871C157.091 19.2848 157.371 19.5881 157.729 19.7969C158.087 20.0024 158.503 20.1051 158.977 20.1051C159.285 20.1051 159.563 20.062 159.812 19.9759C160.064 19.8864 160.281 19.7538 160.463 19.5781C160.646 19.3991 160.786 19.1771 160.886 18.9119L162.019 19.2301C161.9 19.6146 161.7 19.9527 161.418 20.2443C161.136 20.5327 160.788 20.758 160.374 20.9205C159.959 21.0795 159.494 21.1591 158.977 21.1591Z" fill="#252A2D"/>
<path d="M179.129 19.5029C179.129 19.751 178.771 19.974 178.12 19.974C176.389 19.974 175.199 18.9625 175.199 16.4425C175.199 13.6755 176.704 12.7976 178.727 12.7976C179.468 12.7976 180.21 12.9121 181.086 13.1813L181.111 10.9526C180.298 10.7728 179.558 10.7075 178.747 10.7075C175.265 10.7075 172.5 12.4843 172.5 16.3994C172.5 20.3144 175.22 21.9998 178.257 21.9998C179.29 21.9998 180.636 21.818 181.579 21.4152V16.2628H179.128V19.5019L179.129 19.5029Z" fill="#252A2D"/>
<path d="M186.437 19.482V17.0282H190.324V15.138H186.437C186.437 14.2612 186.437 13.6746 186.483 13.1132C186.483 13.0238 186.618 12.8872 186.73 12.8872C188.638 12.8872 189.741 12.8872 190.796 12.9997V10.9316H183.966V21.775H190.955V19.6828C190.101 19.7511 189.087 19.7732 186.73 19.7732C186.548 19.7732 186.438 19.6386 186.438 19.482" fill="#252A2D"/>
<path d="M199.854 16.9168C199.854 17.0734 199.811 17.1638 199.72 17.1638C199.676 17.1638 199.654 17.1397 199.608 17.1176L195.54 10.9316H193.044V21.775H195.294V14.687C196.212 15.9696 198.732 19.8867 199.766 21.775H202.079V10.9316H199.854V16.9168Z" fill="#252A2D"/>
<path d="M203.537 13.1353C204.413 13.0459 205.56 12.9997 206.592 12.9997C206.771 12.9997 206.908 13.1594 206.908 13.294V21.775H209.379V16.7571C209.379 15.0697 209.379 14.1477 209.424 13.3161C209.424 13.1584 209.56 12.9987 209.714 12.9987C210.751 12.9987 211.94 13.0449 212.771 13.1343V10.9307H203.537V13.1343V13.1353Z" fill="#252A2D"/>
<path d="M216.589 19.482V17.0282H220.472V15.138H216.589C216.589 14.2612 216.589 13.6746 216.632 13.1132C216.632 13.0238 216.767 12.8872 216.879 12.8872C218.79 12.8872 219.891 12.8872 220.947 12.9997V10.9316H214.117V21.775H221.103V19.6828C220.252 19.7511 219.239 19.7732 216.88 19.7732C216.7 19.7732 216.59 19.6386 216.59 19.482" fill="#252A2D"/>
<path d="M237.489 10.9315H235.153C234.567 12.7323 232.844 17.0461 231.429 20.3596L229.037 16.9829C230.275 16.4425 231.085 15.3618 231.085 14.0571C231.085 11.7872 229.22 10.7969 227.017 10.7969C225.377 10.7969 224.926 10.9516 223.196 10.9516V21.7738H225.668V17.8366H226.229C226.522 17.8366 226.747 17.9491 227.126 18.4432L229.6 21.7748H233.309C233.623 20.919 233.939 20.0432 234.321 19.1644H238.119C238.456 20.0432 238.747 20.8728 239.016 21.7748H241.601L237.489 10.9315ZM226.478 15.9263H225.667C225.667 15.1599 225.689 13.811 225.735 13.112C225.757 12.886 225.914 12.7092 226.656 12.7092C227.621 12.7092 228.385 13.1813 228.385 14.2148C228.385 15.3618 227.69 15.9263 226.478 15.9263ZM235.062 17.2068C235.398 16.2406 235.804 15.184 236.276 14.0802C236.725 15.184 237.108 16.1944 237.444 17.2068H235.062Z" fill="#252A2D"/>
<path d="M254.991 5.55033L255.029 5.30727C255.052 5.14456 255.077 4.98586 255.102 4.82717L255.113 4.75586C254.863 4.90049 254.619 5.05014 254.381 5.20181C254.226 5.30325 254.081 5.39866 253.937 5.49609L253.89 5.52723C253.758 5.61662 253.629 5.70801 253.502 5.79941L253.439 5.84561C253.314 5.93501 253.194 6.0244 253.074 6.1168L253.005 6.16802C252.887 6.25942 252.768 6.35182 252.652 6.44523L252.588 6.49746C252.471 6.59288 252.354 6.68829 252.237 6.78672L252.18 6.83594C252.062 6.93738 251.944 7.03882 251.829 7.14227L251.784 7.18245C251.661 7.29193 251.542 7.40241 251.425 7.51389L251.398 7.54001C250.624 8.27421 249.906 9.07571 249.262 9.9214C249.154 10.063 249.054 10.2006 248.954 10.3372L248.917 10.3904C248.83 10.513 248.743 10.6365 248.658 10.7621L248.611 10.8304C248.525 10.9579 248.447 11.0754 248.371 11.194L248.307 11.2914C248.236 11.4049 248.164 11.5194 248.094 11.6339L248.028 11.7434C247.96 11.8568 247.894 11.9703 247.828 12.0848L247.763 12.2003C247.697 12.3158 247.635 12.4303 247.572 12.5469L247.511 12.6614C247.447 12.7819 247.386 12.9004 247.326 13.0199L247.271 13.1294C247.205 13.259 247.142 13.3905 247.082 13.5211L247.045 13.5995C246.895 13.9229 246.751 14.2503 246.622 14.5767L246.615 14.5938C246.553 14.7485 246.494 14.9051 246.436 15.0608L246.385 15.2004C246.342 15.3169 246.3 15.4335 246.26 15.553L246.2 15.7338C246.167 15.8372 246.132 15.9437 246.099 16.0491L246.038 16.25C246.008 16.3505 245.978 16.4509 245.95 16.5523C245.939 16.5895 245.928 16.6247 245.918 16.6628C246.023 16.5825 246.131 16.5001 246.235 16.4218C246.43 16.2771 246.618 16.1385 246.808 15.9979L247.011 15.8533C247.131 15.7659 247.253 15.6775 247.373 15.5911L247.617 15.4214C247.723 15.3461 247.83 15.2697 247.938 15.1974L248.195 15.0217C248.296 14.9513 248.396 14.882 248.497 14.8148C248.585 14.7555 248.675 14.6962 248.761 14.637C248.859 14.5727 248.957 14.5074 249.056 14.4441C249.145 14.3849 249.234 14.3266 249.324 14.2684C249.421 14.2071 249.518 14.1458 249.614 14.0846C249.703 14.0283 249.794 13.9721 249.884 13.9158C249.97 13.8616 250.055 13.8084 250.142 13.7551L250.439 13.5743C250.536 13.5151 250.632 13.4568 250.73 13.4006L250.991 13.2459C251.091 13.1877 251.188 13.1314 251.288 13.0762L251.544 12.9295C251.636 12.8763 251.727 12.8271 251.817 12.7769L252.095 12.6242C252.226 12.5529 252.357 12.4826 252.489 12.4133C252.577 12.3661 252.665 12.3199 252.751 12.2747C252.896 12.1993 253.04 12.126 253.183 12.0527L253.445 11.9241C253.541 11.8769 253.636 11.8287 253.732 11.7815L254.051 11.6289C254.091 11.6108 254.13 11.5917 254.168 11.5736L254.186 11.4661C254.229 11.1809 254.269 10.8967 254.307 10.6215L254.927 5.99527C254.949 5.84561 254.97 5.69697 254.992 5.54932L254.991 5.55033Z" fill="#252A2D"/>
<path d="M265.082 2.08936C263.526 2.10944 260.068 2.31132 255.96 4.31607L255.944 4.40948C255.722 5.8116 255.472 7.59438 255.157 10.02L255.064 10.725C255.044 10.8787 255.022 11.0354 255 11.1911H255.003V11.1981C255.243 11.0926 255.496 10.9882 255.768 10.8757L255.902 10.8215C256.188 10.706 256.483 10.5925 256.782 10.482L256.926 10.4277C257.239 10.3153 257.528 10.2138 257.806 10.1234L257.919 10.0852C258.251 9.97878 258.548 9.88638 258.831 9.80402C259.101 9.72668 259.368 9.65236 259.638 9.58205C259.692 9.56799 259.746 9.55393 259.802 9.54087L259.962 9.5017C260.123 9.46052 260.284 9.42035 260.445 9.38218C260.517 9.36611 260.589 9.35004 260.66 9.33296L260.86 9.28978C260.989 9.26065 261.121 9.23052 261.252 9.2044C261.328 9.18833 261.405 9.17427 261.483 9.1582L261.709 9.11501C261.826 9.09292 261.942 9.06981 262.06 9.04872C262.143 9.03265 262.227 9.0196 262.312 9.00554L262.5 8.9754C262.622 8.95431 262.744 8.93422 262.867 8.91615C262.955 8.90309 263.041 8.89003 263.128 8.87697L263.302 8.85387C263.425 8.8368 263.55 8.81973 263.673 8.80365C263.769 8.7916 263.866 8.78055 263.962 8.77051L264.083 8.75645C264.216 8.74239 264.348 8.72632 264.48 8.71326C264.579 8.70422 264.677 8.69618 264.776 8.68815L264.982 8.67007C265.04 8.66505 265.099 8.65902 265.16 8.654H265.186H265.19L265.265 8.64898C265.312 8.64496 265.361 8.64094 265.408 8.63693L265.462 8.63391C265.58 6.76978 265.425 4.62844 265.083 2.08936H265.082Z" fill="#252A2D"/>
<path d="M264.914 9.44537L264.867 9.45039C264.752 9.46043 264.636 9.46947 264.52 9.48152C264.375 9.49458 264.231 9.51165 264.086 9.52772L264.049 9.53174C263.946 9.5438 263.84 9.55585 263.739 9.5689C263.594 9.58698 263.45 9.60707 263.306 9.62716L263.248 9.63419C263.151 9.64825 263.054 9.66231 262.954 9.67738C262.823 9.69747 262.691 9.71956 262.558 9.74065L262.423 9.76375C262.339 9.77782 262.256 9.79188 262.171 9.80694C262.041 9.83105 261.911 9.85616 261.78 9.88127L261.614 9.91341C261.539 9.92847 261.463 9.94254 261.388 9.95961C261.255 9.98773 261.122 10.0159 260.988 10.045L260.83 10.0821C260.756 10.0972 260.681 10.1133 260.607 10.1314C260.46 10.1655 260.314 10.2027 260.167 10.2398L259.99 10.285C259.936 10.2981 259.879 10.3101 259.825 10.3262C259.564 10.3945 259.305 10.4648 259.046 10.5401C257.677 10.9369 256.267 11.4632 254.858 12.103C254.71 12.9828 254.526 13.8717 254.312 14.7465C254.259 14.9645 254.205 15.1754 254.15 15.3873L254.132 15.4556C254.082 15.6444 254.031 15.8322 253.977 16.0201L253.944 16.1346C253.895 16.3063 253.846 16.476 253.794 16.6448L253.748 16.7934C253.698 16.9501 253.65 17.1058 253.599 17.2615L253.541 17.4372C253.493 17.5819 253.445 17.7265 253.396 17.8691L253.326 18.066C253.279 18.1996 253.232 18.3342 253.182 18.4667C253.156 18.538 253.13 18.6094 253.102 18.6807C253.055 18.8062 253.006 18.9318 252.957 19.0553L252.869 19.2823C252.822 19.4008 252.773 19.5193 252.726 19.6368L252.628 19.8709C252.579 19.9844 252.529 20.0979 252.481 20.2083L252.375 20.4454C252.33 20.5498 252.282 20.6523 252.235 20.7537L252.2 20.8321C252.172 20.8913 252.143 20.9506 252.116 21.0088C252.064 21.1173 252.012 21.2248 251.96 21.3322L251.929 21.3945C251.903 21.4487 251.876 21.504 251.848 21.5582L251.824 21.6074C251.787 21.6878 251.747 21.7742 251.708 21.8565C252.583 21.7722 253.527 21.5522 254.53 21.1876L254.539 21.0771L254.547 20.9998C254.549 20.9807 254.552 20.9616 254.554 20.9415L254.566 20.821C254.569 20.7919 254.574 20.7628 254.578 20.7326L254.586 20.6724C254.597 20.595 254.606 20.5167 254.618 20.4383C254.63 20.361 254.644 20.2837 254.658 20.2063C254.671 20.128 254.686 20.0506 254.699 19.9733C254.715 19.897 254.731 19.8206 254.746 19.7453C254.764 19.668 254.781 19.5906 254.798 19.5153C254.816 19.441 254.837 19.3657 254.855 19.2933C254.876 19.217 254.897 19.1407 254.917 19.0653C254.939 18.993 254.961 18.9207 254.985 18.8494L254.99 18.8283C255.013 18.761 255.033 18.6907 255.057 18.6244C255.078 18.5601 255.1 18.4959 255.124 18.4326L255.139 18.3904C255.163 18.3231 255.186 18.2558 255.213 18.1895C255.237 18.1273 255.262 18.064 255.289 18.0017L255.3 17.9736C255.33 17.9043 255.356 17.834 255.388 17.7667C255.412 17.7104 255.437 17.6562 255.463 17.602L255.495 17.5306C255.523 17.4704 255.55 17.4111 255.581 17.3519C255.606 17.2996 255.632 17.2474 255.659 17.1952L255.691 17.1329C255.723 17.0706 255.755 17.0074 255.788 16.9471C255.817 16.8939 255.848 16.8426 255.878 16.7904L255.923 16.7101C255.954 16.6568 255.985 16.6046 256.014 16.5514C256.047 16.4971 256.082 16.4429 256.116 16.3877L256.128 16.3656C256.177 16.2902 256.215 16.229 256.255 16.1667C256.285 16.1195 256.319 16.0713 256.352 16.0241L256.401 15.9528C256.437 15.8995 256.473 15.8473 256.512 15.7941C256.547 15.7469 256.581 15.7007 256.617 15.6525L256.663 15.5902C256.703 15.5369 256.742 15.4847 256.783 15.4345C256.819 15.3913 256.854 15.3471 256.888 15.3049L256.946 15.2346C256.985 15.1834 257.028 15.1352 257.069 15.085C257.106 15.0398 257.147 14.9976 257.186 14.9544L257.244 14.8901C257.285 14.8429 257.327 14.7967 257.368 14.7505C257.409 14.7073 257.452 14.6661 257.492 14.624L257.557 14.5577C257.599 14.5125 257.641 14.4703 257.684 14.4271C257.723 14.3899 257.762 14.3528 257.802 14.3166L257.879 14.2423C257.924 14.2011 257.967 14.1589 258.013 14.1188C258.053 14.0836 258.091 14.0485 258.134 14.0133L258.213 13.944C258.258 13.9028 258.306 13.8636 258.354 13.8245C258.397 13.7893 258.439 13.7542 258.483 13.72L258.575 13.6477C258.618 13.6136 258.663 13.5784 258.708 13.5432C258.754 13.5081 258.799 13.475 258.845 13.4418L258.941 13.3715C258.985 13.3394 259.029 13.3082 259.071 13.2781C259.116 13.248 259.16 13.2178 259.205 13.1897L259.313 13.1184C259.357 13.0863 259.403 13.0561 259.45 13.027C259.497 12.9959 259.548 12.9667 259.599 12.9376L259.694 12.8783C259.741 12.8492 259.789 12.8201 259.837 12.793C259.886 12.7649 259.937 12.7387 259.986 12.7096L260.09 12.6544C260.137 12.6283 260.185 12.6001 260.235 12.575C260.288 12.5469 260.342 12.5198 260.397 12.4937L260.5 12.4414C260.548 12.4183 260.594 12.3962 260.643 12.3721C260.693 12.348 260.746 12.3259 260.797 12.3038L260.914 12.2526C260.964 12.2305 261.011 12.2094 261.06 12.1883C261.116 12.1642 261.174 12.1431 261.232 12.12L261.353 12.0728C261.398 12.0548 261.444 12.0377 261.489 12.0206C261.546 12.0005 261.603 11.9814 261.661 11.9603L261.793 11.9151C261.836 11.9001 261.88 11.885 261.923 11.872C261.985 11.8519 262.047 11.8348 262.109 11.8157L262.244 11.7765C262.285 11.7645 262.325 11.7514 262.368 11.7404C262.432 11.7233 262.496 11.7062 262.56 11.6932L262.693 11.66C262.734 11.65 262.778 11.6379 262.821 11.6289C262.892 11.6128 262.965 11.5988 263.039 11.5847L263.163 11.5596C263.203 11.5516 263.242 11.5445 263.281 11.5375C263.368 11.5224 263.454 11.5084 263.542 11.4963L263.655 11.4792C263.685 11.4752 263.716 11.4682 263.748 11.4652C263.904 11.4441 264.062 11.427 264.221 11.413C264.319 11.4039 264.42 11.3989 264.524 11.3929L264.971 11.3768L264.969 11.3798H265.031C265.196 10.7561 265.314 10.1012 265.388 9.4082C265.23 9.41925 265.071 9.43231 264.913 9.44537H264.914Z" fill="#252A2D"/>
<path d="M264.53 12.1609C264.372 12.175 264.282 12.178 264.282 12.178C264.208 12.185 263.918 12.2171 263.854 12.2252C263.825 12.2292 263.796 12.2342 263.77 12.2382L263.716 12.2463C263.609 12.2633 263.516 12.2754 263.426 12.2925C263.389 12.2975 263.354 12.3055 263.32 12.3126L263.213 12.3336C263.143 12.3477 263.073 12.3618 263.003 12.3768C262.966 12.3849 262.925 12.3949 262.887 12.404L262.782 12.4301C262.718 12.4461 262.652 12.4622 262.588 12.4793C262.544 12.4893 262.502 12.5024 262.46 12.5144L262.37 12.5406C262.306 12.5586 262.241 12.5777 262.179 12.5978C262.134 12.6119 262.09 12.6269 262.046 12.641L261.956 12.6721C261.896 12.6912 261.837 12.7113 261.778 12.7324C261.737 12.7485 261.693 12.7645 261.651 12.7816L261.569 12.8127C261.509 12.8368 261.446 12.8599 261.385 12.8851C261.333 12.9072 261.28 12.9303 261.228 12.9513L261.206 12.9624C261.136 12.9925 261.07 13.0217 261.001 13.0538C260.955 13.0749 260.909 13.097 260.865 13.1191L260.797 13.1522C260.739 13.1803 260.681 13.2075 260.625 13.2376C260.572 13.2657 260.519 13.2928 260.466 13.322C260.386 13.3652 260.322 13.4003 260.258 13.4365C260.201 13.4686 260.146 13.5028 260.088 13.5369C260.026 13.5741 259.962 13.6122 259.901 13.6504C259.845 13.6845 259.79 13.7207 259.733 13.7569C259.673 13.797 259.614 13.8372 259.554 13.8784C259.5 13.9156 259.445 13.9537 259.392 13.9929C259.333 14.0341 259.275 14.0773 259.217 14.1204C259.165 14.1596 259.112 14.1998 259.06 14.241C259.004 14.2852 258.947 14.3304 258.891 14.3766C258.84 14.4177 258.79 14.4599 258.74 14.5031C258.685 14.5503 258.63 14.5985 258.577 14.6457C258.527 14.6889 258.477 14.7331 258.43 14.7783C258.377 14.8275 258.326 14.8778 258.274 14.928C258.226 14.9732 258.178 15.0194 258.133 15.0676C258.084 15.1188 258.033 15.171 257.983 15.2223C257.937 15.2695 257.892 15.3177 257.849 15.3669C257.799 15.4201 257.752 15.4733 257.705 15.5296C257.662 15.5788 257.618 15.627 257.574 15.6772C257.53 15.7335 257.483 15.7897 257.439 15.847L257.419 15.8701C257.384 15.9133 257.351 15.9575 257.319 15.9996C257.272 16.0579 257.229 16.1172 257.187 16.1764C257.14 16.2367 257.105 16.2849 257.071 16.3331C257.03 16.3934 256.987 16.4546 256.944 16.5149L256.921 16.5541C256.892 16.5952 256.866 16.6364 256.837 16.6776C256.8 16.7369 256.764 16.7961 256.727 16.8564L256.696 16.9076C256.67 16.9498 256.644 16.99 256.62 17.0311C256.588 17.0854 256.558 17.1406 256.527 17.1959L256.488 17.2672C256.464 17.3094 256.439 17.3526 256.417 17.3947C256.386 17.454 256.357 17.5122 256.325 17.5725L256.287 17.6509C256.267 17.692 256.246 17.7302 256.228 17.7694C256.202 17.8276 256.174 17.8869 256.147 17.9451L256.106 18.0385C256.089 18.0767 256.07 18.1139 256.054 18.153C256.027 18.2163 256.002 18.2806 255.977 18.3449L255.942 18.4333C255.927 18.4704 255.912 18.5076 255.899 18.5427C255.871 18.6151 255.846 18.6864 255.821 18.7607L255.792 18.8481C255.78 18.8782 255.768 18.9103 255.757 18.9435C255.726 19.0419 255.695 19.1414 255.666 19.2428L255.652 19.289C255.645 19.3091 255.64 19.3302 255.633 19.3493C255.595 19.4869 255.56 19.6255 255.526 19.7631L255.51 19.8464C255.484 19.9579 255.46 20.0704 255.437 20.1839L255.432 20.215L255.348 20.8568C256.92 20.1879 258.623 19.1835 260.43 17.7965C262.676 16.073 264.058 14.3002 264.803 12.1519C264.602 12.1589 264.532 12.1589 264.532 12.1589L264.53 12.1609Z" fill="#252A2D"/>
<path d="M245.187 16.4106C245.226 16.271 245.265 16.1414 245.305 16.0139L245.336 15.9044C245.389 15.7316 245.446 15.5589 245.503 15.3871C245.514 15.353 245.527 15.3188 245.54 15.2867L245.56 15.2224C245.601 15.1059 245.642 14.9904 245.684 14.8759C245.7 14.8287 245.72 14.7795 245.738 14.7323L245.787 14.6007C245.816 14.5244 245.845 14.447 245.877 14.3707C245.902 14.3064 245.93 14.2411 245.956 14.1758L245.989 14.0945C246.018 14.0202 246.049 13.9468 246.08 13.8745C246.108 13.8072 246.137 13.7389 246.169 13.6726L246.191 13.6194C246.226 13.5411 246.261 13.4617 246.297 13.3834C246.337 13.296 246.377 13.2086 246.419 13.1212C246.454 13.0489 246.49 12.9746 246.526 12.9013C246.571 12.8119 246.613 12.7235 246.659 12.6331C246.694 12.5648 246.73 12.4945 246.765 12.4262C246.813 12.3348 246.862 12.2434 246.91 12.153C246.945 12.0887 246.98 12.0265 247.016 11.9622C247.066 11.8668 247.121 11.7733 247.173 11.6799C247.207 11.6227 247.241 11.5654 247.273 11.5102C247.33 11.4108 247.389 11.3133 247.449 11.2169L247.54 11.0703C247.604 10.9668 247.669 10.8634 247.735 10.7599L247.806 10.6515C247.881 10.539 247.955 10.4245 248.034 10.312L248.052 10.2869C248.523 9.59986 249.043 8.93195 249.597 8.30421L249.628 8.26906C249.726 8.15757 249.826 8.04709 249.929 7.93861L249.985 7.87634C250.081 7.77189 250.181 7.66944 250.281 7.56599L250.352 7.49367C250.449 7.39424 250.549 7.29481 250.647 7.19738L250.728 7.12105C250.828 7.02362 250.927 6.93021 251.028 6.8358L251.111 6.75746C251.215 6.66506 251.316 6.57265 251.42 6.48226L251.504 6.40693C251.609 6.31453 251.715 6.22514 251.822 6.13675L251.905 6.06645C252.013 5.97505 252.123 5.88666 252.234 5.79827L252.306 5.74102C252.423 5.64963 252.537 5.56024 252.654 5.47085L252.705 5.43368C253.214 5.05302 253.749 4.68843 254.296 4.35196L254.403 4.28467C254.475 4.24048 254.548 4.1993 254.62 4.15711L254.733 4.09082C254.784 4.06069 254.834 4.03157 254.884 4.00344C254.945 3.96829 255.007 3.93314 255.068 3.89899L255.183 3.83571C255.212 3.81964 255.24 3.80357 255.269 3.7885C255.5 2.43861 255.742 1.28659 256.008 0.271156L256.077 0.000976562C254.66 0.470023 253.396 0.935053 252.271 1.40209H252.27C247.091 3.5595 244.874 5.83343 244.381 9.26038C244.086 11.3033 244.405 13.755 245.074 16.8334C245.111 16.6908 245.148 16.5502 245.186 16.4126L245.187 16.4106Z" fill="#252A2D"/>
<path d="M250.811 21.8895L250.925 21.6745C250.978 21.5741 251.029 21.4697 251.083 21.3662L251.216 21.1081C251.269 20.9976 251.322 20.8861 251.376 20.7746L251.477 20.5667C251.534 20.4452 251.589 20.3216 251.645 20.1971L251.728 20.0153C251.894 19.6417 252.055 19.258 252.205 18.8743L252.265 18.7186C252.321 18.577 252.375 18.4354 252.43 18.2898L252.507 18.0758C252.552 17.9503 252.596 17.8237 252.642 17.6982C252.663 17.6379 252.681 17.5807 252.703 17.5204L252.726 17.4561C252.765 17.3356 252.806 17.2161 252.846 17.0956C252.87 17.0222 252.893 16.9489 252.917 16.8746L252.928 16.8395C252.965 16.7219 253.004 16.6044 253.039 16.4869C253.067 16.3975 253.093 16.3081 253.12 16.2187C253.155 16.1022 253.188 15.9857 253.221 15.8682C253.247 15.7758 253.274 15.6834 253.299 15.591C253.332 15.4745 253.364 15.36 253.395 15.2445C253.419 15.1491 253.444 15.0547 253.469 14.9592C253.499 14.8447 253.527 14.7292 253.556 14.6137C253.58 14.5163 253.603 14.4189 253.627 14.3205C253.655 14.206 253.681 14.0925 253.706 13.978C253.729 13.8775 253.752 13.7791 253.773 13.6777C253.798 13.5632 253.822 13.4497 253.847 13.3342C253.868 13.2327 253.889 13.1313 253.908 13.0298C253.929 12.9314 253.948 12.832 253.966 12.7325L253.992 12.5949C253.999 12.5628 254.004 12.5306 254.011 12.4995L253.835 12.5849C253.759 12.6231 253.682 12.6602 253.605 12.6984L253.386 12.8109C253.277 12.8661 253.168 12.9214 253.061 12.9776C252.989 13.0138 252.919 13.0509 252.851 13.0881C252.739 13.1483 252.624 13.2086 252.513 13.2699L252.313 13.3783C252.195 13.4426 252.079 13.5079 251.962 13.5722L251.775 13.6787C251.652 13.749 251.531 13.8183 251.408 13.8886L251.234 13.993C251.107 14.0684 250.979 14.1437 250.852 14.22L250.69 14.3174C250.558 14.3988 250.423 14.4812 250.292 14.5645L250.143 14.6549C250.004 14.7443 249.863 14.8347 249.722 14.9251L249.595 15.0065C249.446 15.1039 249.298 15.2023 249.146 15.3017L249.046 15.369C248.883 15.4775 248.719 15.589 248.556 15.7015L248.494 15.7447C248.311 15.8702 248.128 15.9988 247.944 16.1283C247.177 16.6707 246.399 17.2523 245.622 17.8619L245.4 18.0357C246.238 20.4552 248.141 21.8583 250.814 21.8905L250.811 21.8895Z" fill="#252A2D"/>
<path d="M265.359 19.685C265.359 20.8511 264.422 21.7761 263.232 21.7761C262.041 21.7761 261.095 20.8511 261.095 19.685C261.095 18.5189 262.043 17.6079 263.246 17.6079C264.449 17.6079 265.359 18.5189 265.359 19.685ZM261.626 19.685C261.626 20.611 262.321 21.3442 263.247 21.3442C264.146 21.3573 264.831 20.611 264.831 19.698C264.831 18.785 264.147 18.0267 263.223 18.0267C262.299 18.0267 261.627 18.773 261.627 19.685M262.907 20.7627H262.424V18.6856C262.615 18.6585 262.877 18.6203 263.223 18.6203C263.614 18.6203 263.791 18.6856 263.932 18.7861C264.057 18.8734 264.147 19.0261 264.147 19.228C264.147 19.4811 263.954 19.6478 263.714 19.7221V19.7482C263.919 19.8115 264.02 19.9742 264.081 20.2545C264.147 20.5708 264.197 20.6843 264.234 20.7607H263.726C263.664 20.6843 263.626 20.5066 263.565 20.2545C263.524 20.0365 263.397 19.9371 263.132 19.9371H262.905V20.7617L262.907 20.7627ZM262.919 19.5976H263.145C263.411 19.5976 263.626 19.5082 263.626 19.2933C263.626 19.1034 263.484 18.9749 263.182 18.9749C263.057 18.9749 262.97 18.9889 262.918 19.002V19.5986L262.919 19.5976Z" fill="#252A2D"/>
<path d="M83.9912 44.9091C83.9912 44.3655 84.1238 43.87 84.3889 43.4226C84.6541 42.9751 85.0104 42.6188 85.4578 42.3537C85.9053 42.0885 86.4008 41.956 86.9443 41.956C87.415 41.956 87.8492 42.0571 88.2469 42.2592C88.6479 42.4614 88.9794 42.7382 89.2412 43.0895C89.503 43.4375 89.6655 43.8319 89.7284 44.2727H88.5253C88.459 43.9313 88.2751 43.6529 87.9735 43.4375C87.6718 43.2188 87.3288 43.1094 86.9443 43.1094C86.6129 43.1094 86.3113 43.1906 86.0395 43.353C85.7677 43.5154 85.5506 43.7325 85.3882 44.0043C85.2258 44.276 85.1446 44.5777 85.1446 44.9091C85.1446 45.2405 85.2258 45.5421 85.3882 45.8139C85.5506 46.0857 85.7677 46.3028 86.0395 46.4652C86.3113 46.6276 86.6129 46.7088 86.9443 46.7088C87.3288 46.7088 87.6536 46.6011 87.9188 46.3857C88.1872 46.1669 88.3563 45.8868 88.4259 45.5455H89.629C89.566 45.9863 89.4119 46.3823 89.1666 46.7337C88.9214 47.0817 88.6065 47.3568 88.222 47.5589C87.8409 47.7611 87.415 47.8622 86.9443 47.8622C86.4008 47.8622 85.9053 47.7296 85.4578 47.4645C85.0104 47.1993 84.6541 46.843 84.3889 46.3956C84.1238 45.9482 83.9912 45.4527 83.9912 44.9091ZM86.8946 50.1591C86.1721 50.1591 85.4926 50.0232 84.8563 49.7514C84.2232 49.4796 83.6647 49.1035 83.1808 48.6229C82.7003 48.139 82.3224 47.5805 82.0473 46.9474C81.7755 46.3144 81.6413 45.6349 81.6446 44.9091C81.6479 44.1832 81.7855 43.5038 82.0573 42.8707C82.3324 42.2377 82.7102 41.6809 83.1908 41.2003C83.6714 40.7164 84.2282 40.3385 84.8612 40.0668C85.4943 39.795 86.1721 39.6591 86.8946 39.6591C87.6205 39.6591 88.2999 39.795 88.933 40.0668C89.5693 40.3385 90.1262 40.7164 90.6034 41.2003C91.084 41.6809 91.4602 42.2377 91.732 42.8707C92.0038 43.5038 92.1413 44.1832 92.1446 44.9091C92.1479 45.6349 92.0137 46.3144 91.7419 46.9474C91.4701 47.5805 91.094 48.139 90.6134 48.6229C90.1328 49.1035 89.5743 49.4796 88.9379 49.7514C88.3016 50.0232 87.6205 50.1591 86.8946 50.1591ZM86.8946 49.0057C87.4614 49.0057 87.9933 48.8996 88.4905 48.6875C88.9877 48.4754 89.4235 48.1821 89.798 47.8075C90.1726 47.433 90.4659 46.9988 90.678 46.505C90.8901 46.0078 90.9945 45.4775 90.9912 44.9141C90.9879 44.3473 90.8802 43.8153 90.6681 43.3182C90.4559 42.821 90.1626 42.3852 89.7881 42.0107C89.4136 41.6361 88.9794 41.3428 88.4855 41.1307C87.9917 40.9186 87.4614 40.8125 86.8946 40.8125C86.3312 40.8125 85.8025 40.9186 85.3087 41.1307C84.8148 41.3428 84.3807 41.6378 84.0061 42.0156C83.6316 42.3902 83.3366 42.826 83.1212 43.3232C82.9091 43.817 82.8013 44.3473 82.798 44.9141C82.7947 45.4742 82.8991 46.0028 83.1112 46.5C83.3234 46.9938 83.6167 47.428 83.9912 47.8026C84.3691 48.1771 84.8049 48.4721 85.2987 48.6875C85.7959 48.8996 86.3279 49.0057 86.8946 49.0057ZM98.2932 50V49.1051L101.654 45.4261C102.048 44.9953 102.373 44.6207 102.628 44.3026C102.884 43.9811 103.073 43.6795 103.195 43.3977C103.321 43.1127 103.384 42.8144 103.384 42.5028C103.384 42.1449 103.298 41.835 103.126 41.5732C102.957 41.3113 102.725 41.1091 102.43 40.9666C102.135 40.8241 101.803 40.7528 101.435 40.7528C101.044 40.7528 100.703 40.834 100.411 40.9964C100.123 41.1555 99.8991 41.3793 99.74 41.6676C99.5842 41.956 99.5063 42.294 99.5063 42.6818H98.333C98.333 42.0852 98.4706 41.5616 98.7456 41.1108C99.0207 40.66 99.3953 40.3087 99.8692 40.0568C100.347 39.8049 100.882 39.679 101.475 39.679C102.072 39.679 102.6 39.8049 103.061 40.0568C103.522 40.3087 103.883 40.6484 104.145 41.076C104.407 41.5036 104.538 41.9792 104.538 42.5028C104.538 42.8774 104.47 43.2436 104.334 43.6016C104.201 43.9562 103.969 44.3523 103.638 44.7898C103.31 45.224 102.854 45.7543 102.271 46.3807L99.9836 48.8267V48.9062H104.717V50H98.2932ZM110.091 50.1392C109.342 50.1392 108.704 49.9354 108.177 49.5277C107.65 49.1167 107.247 48.5218 106.969 47.7429C106.69 46.9607 106.551 46.0161 106.551 44.9091C106.551 43.8087 106.69 42.8691 106.969 42.0902C107.25 41.308 107.655 40.7114 108.182 40.3004C108.712 39.8861 109.348 39.679 110.091 39.679C110.833 39.679 111.468 39.8861 111.995 40.3004C112.525 40.7114 112.93 41.308 113.208 42.0902C113.49 42.8691 113.631 43.8087 113.631 44.9091C113.631 46.0161 113.491 46.9607 113.213 47.7429C112.935 48.5218 112.532 49.1167 112.005 49.5277C111.478 49.9354 110.84 50.1392 110.091 50.1392ZM110.091 49.0455C110.833 49.0455 111.41 48.6875 111.821 47.9716C112.232 47.2557 112.437 46.2348 112.437 44.9091C112.437 44.0275 112.343 43.2768 112.154 42.657C111.968 42.0372 111.7 41.5649 111.349 41.2401C111.001 40.9152 110.581 40.7528 110.091 40.7528C109.355 40.7528 108.78 41.1158 108.366 41.8416C107.951 42.5642 107.744 43.5866 107.744 44.9091C107.744 45.7907 107.837 46.5398 108.023 47.1562C108.208 47.7727 108.475 48.2417 108.823 48.5632C109.174 48.8847 109.597 49.0455 110.091 49.0455ZM115.52 50V49.1051L118.881 45.4261C119.275 44.9953 119.6 44.6207 119.855 44.3026C120.11 43.9811 120.299 43.6795 120.422 43.3977C120.548 43.1127 120.611 42.8144 120.611 42.5028C120.611 42.1449 120.525 41.835 120.352 41.5732C120.183 41.3113 119.951 41.1091 119.656 40.9666C119.361 40.8241 119.03 40.7528 118.662 40.7528C118.271 40.7528 117.929 40.834 117.638 40.9964C117.349 41.1555 117.126 41.3793 116.967 41.6676C116.811 41.956 116.733 42.294 116.733 42.6818H115.56C115.56 42.0852 115.697 41.5616 115.972 41.1108C116.247 40.66 116.622 40.3087 117.096 40.0568C117.573 39.8049 118.108 39.679 118.702 39.679C119.298 39.679 119.827 39.8049 120.288 40.0568C120.748 40.3087 121.11 40.6484 121.371 41.076C121.633 41.5036 121.764 41.9792 121.764 42.5028C121.764 42.8774 121.696 43.2436 121.56 43.6016C121.428 43.9562 121.196 44.3523 120.864 44.7898C120.536 45.224 120.08 45.7543 119.497 46.3807L117.21 48.8267V48.9062H121.943V50H115.52ZM123.539 47.9119V46.8977L128.013 39.8182H128.749V41.3892H128.252L124.871 46.7386V46.8182H130.897V47.9119H123.539ZM128.332 50V47.6037V47.1314V39.8182H129.505V50H128.332ZM143.837 43C143.727 42.6652 143.583 42.3653 143.404 42.1001C143.229 41.8317 143.018 41.603 142.773 41.4141C142.531 41.2251 142.256 41.081 141.948 40.9815C141.639 40.8821 141.301 40.8324 140.933 40.8324C140.33 40.8324 139.782 40.9882 139.288 41.2997C138.794 41.6113 138.401 42.0703 138.109 42.6768C137.818 43.2834 137.672 44.0275 137.672 44.9091C137.672 45.7907 137.819 46.5348 138.114 47.1413C138.409 47.7479 138.809 48.2069 139.313 48.5185C139.816 48.83 140.383 48.9858 141.013 48.9858C141.596 48.9858 142.11 48.8615 142.554 48.6129C143.002 48.361 143.35 48.0064 143.598 47.549C143.85 47.0883 143.976 46.5464 143.976 45.9233L144.354 46.0028H141.291V44.9091H145.169V46.0028C145.169 46.8414 144.99 47.5705 144.632 48.1903C144.278 48.8101 143.787 49.2907 143.161 49.6321C142.537 49.9702 141.822 50.1392 141.013 50.1392C140.111 50.1392 139.319 49.9271 138.636 49.5028C137.957 49.0786 137.427 48.4754 137.046 47.6932C136.668 46.911 136.479 45.983 136.479 44.9091C136.479 44.1037 136.586 43.3795 136.802 42.7365C137.021 42.0902 137.329 41.54 137.727 41.0859C138.124 40.6319 138.595 40.2839 139.139 40.0419C139.682 39.8 140.28 39.679 140.933 39.679C141.47 39.679 141.971 39.7602 142.435 39.9226C142.902 40.0817 143.318 40.3087 143.683 40.6037C144.051 40.8954 144.357 41.245 144.602 41.6527C144.848 42.0571 145.017 42.5062 145.109 43H143.837ZM150.323 50.1591C149.588 50.1591 148.953 49.9967 148.419 49.6719C147.889 49.3438 147.48 48.8864 147.191 48.2997C146.906 47.7098 146.764 47.0237 146.764 46.2415C146.764 45.4593 146.906 44.7699 147.191 44.1733C147.48 43.5734 147.881 43.1061 148.394 42.7713C148.911 42.4332 149.515 42.2642 150.204 42.2642C150.602 42.2642 150.995 42.3305 151.382 42.4631C151.77 42.5956 152.123 42.8111 152.441 43.1094C152.759 43.4044 153.013 43.7955 153.202 44.2827C153.391 44.7699 153.485 45.3698 153.485 46.0824V46.5795H147.599V45.5653H152.292C152.292 45.1345 152.206 44.75 152.034 44.4119C151.865 44.0739 151.623 43.8071 151.308 43.6115C150.996 43.416 150.628 43.3182 150.204 43.3182C149.737 43.3182 149.332 43.4342 148.991 43.6662C148.653 43.8949 148.393 44.1932 148.21 44.5611C148.028 44.929 147.937 45.3234 147.937 45.7443V46.4205C147.937 46.9972 148.036 47.486 148.235 47.8871C148.438 48.2848 148.718 48.5881 149.076 48.7969C149.434 49.0024 149.849 49.1051 150.323 49.1051C150.632 49.1051 150.91 49.062 151.159 48.9759C151.411 48.8864 151.628 48.7538 151.81 48.5781C151.992 48.3991 152.133 48.1771 152.233 47.9119L153.366 48.2301C153.247 48.6146 153.046 48.9527 152.764 49.2443C152.483 49.5327 152.135 49.758 151.72 49.9205C151.306 50.0795 150.84 50.1591 150.323 50.1591ZM156.443 45.4062V50H155.27V42.3636H156.404V43.5568H156.503C156.682 43.169 156.954 42.8575 157.318 42.6222C157.683 42.3835 158.154 42.2642 158.73 42.2642C159.247 42.2642 159.7 42.3703 160.088 42.5824C160.475 42.7912 160.777 43.1094 160.992 43.5369C161.208 43.9612 161.316 44.4981 161.316 45.1477V50H160.142V45.2273C160.142 44.6274 159.987 44.16 159.675 43.8253C159.363 43.4872 158.936 43.3182 158.392 43.3182C158.018 43.3182 157.683 43.3994 157.388 43.5618C157.096 43.7242 156.866 43.9612 156.697 44.2727C156.528 44.5843 156.443 44.9621 156.443 45.4062ZM166.781 42.3636V43.358H162.823V42.3636H166.781ZM163.977 40.5341H165.15V47.8125C165.15 48.1439 165.198 48.3925 165.294 48.5582C165.394 48.7206 165.52 48.83 165.672 48.8864C165.828 48.9394 165.992 48.9659 166.164 48.9659C166.293 48.9659 166.399 48.9593 166.482 48.946C166.565 48.9295 166.631 48.9162 166.681 48.9062L166.92 49.9602C166.84 49.9901 166.729 50.0199 166.587 50.0497C166.444 50.0829 166.264 50.0994 166.045 50.0994C165.713 50.0994 165.389 50.0282 165.07 49.8857C164.756 49.7431 164.494 49.526 164.285 49.2344C164.079 48.9427 163.977 48.5748 163.977 48.1307V40.5341ZM171.665 50.1591C170.929 50.1591 170.295 49.9967 169.761 49.6719C169.231 49.3438 168.821 48.8864 168.533 48.2997C168.248 47.7098 168.106 47.0237 168.106 46.2415C168.106 45.4593 168.248 44.7699 168.533 44.1733C168.821 43.5734 169.223 43.1061 169.736 42.7713C170.253 42.4332 170.857 42.2642 171.546 42.2642C171.944 42.2642 172.336 42.3305 172.724 42.4631C173.112 42.5956 173.465 42.8111 173.783 43.1094C174.101 43.4044 174.355 43.7955 174.544 44.2827C174.733 44.7699 174.827 45.3698 174.827 46.0824V46.5795H168.941V45.5653H173.634C173.634 45.1345 173.548 44.75 173.375 44.4119C173.206 44.0739 172.964 43.8071 172.65 43.6115C172.338 43.416 171.97 43.3182 171.546 43.3182C171.079 43.3182 170.674 43.4342 170.333 43.6662C169.995 43.8949 169.735 44.1932 169.552 44.5611C169.37 44.929 169.279 45.3234 169.279 45.7443V46.4205C169.279 46.9972 169.378 47.486 169.577 47.8871C169.779 48.2848 170.059 48.5881 170.417 48.7969C170.775 49.0024 171.191 49.1051 171.665 49.1051C171.973 49.1051 172.252 49.062 172.5 48.9759C172.752 48.8864 172.969 48.7538 173.152 48.5781C173.334 48.3991 173.475 48.1771 173.574 47.9119L174.708 48.2301C174.589 48.6146 174.388 48.9527 174.106 49.2443C173.825 49.5327 173.477 49.758 173.062 49.9205C172.648 50.0795 172.182 50.1591 171.665 50.1591ZM176.612 50V42.3636H177.745V43.517H177.825C177.964 43.1392 178.216 42.8326 178.581 42.5973C178.945 42.362 179.356 42.2443 179.814 42.2443C179.9 42.2443 180.008 42.246 180.137 42.2493C180.266 42.2526 180.364 42.2576 180.43 42.2642V43.4574C180.39 43.4474 180.299 43.4325 180.157 43.4126C180.017 43.3894 179.87 43.3778 179.714 43.3778C179.343 43.3778 179.012 43.4557 178.72 43.6115C178.432 43.764 178.203 43.9761 178.034 44.2479C177.868 44.5163 177.785 44.8229 177.785 45.1676V50H176.612ZM184.068 50.179C183.584 50.179 183.145 50.0878 182.751 49.9055C182.356 49.7199 182.043 49.4531 181.811 49.1051C181.579 48.7538 181.463 48.3295 181.463 47.8324C181.463 47.3949 181.549 47.0402 181.722 46.7685C181.894 46.4934 182.124 46.2779 182.413 46.1222C182.701 45.9664 183.019 45.8504 183.367 45.7741C183.718 45.6946 184.071 45.6316 184.426 45.5852C184.89 45.5256 185.266 45.4808 185.555 45.451C185.846 45.4179 186.058 45.3632 186.191 45.2869C186.327 45.2107 186.395 45.0781 186.395 44.8892V44.8494C186.395 44.3589 186.261 43.9777 185.992 43.706C185.727 43.4342 185.324 43.2983 184.784 43.2983C184.224 43.2983 183.785 43.4209 183.467 43.6662C183.148 43.9115 182.925 44.1733 182.795 44.4517L181.682 44.054C181.881 43.59 182.146 43.2287 182.477 42.9702C182.812 42.7083 183.177 42.526 183.571 42.4233C183.969 42.3172 184.36 42.2642 184.744 42.2642C184.989 42.2642 185.271 42.294 185.589 42.3537C185.911 42.41 186.221 42.5277 186.519 42.7067C186.821 42.8857 187.071 43.1558 187.27 43.517C187.469 43.8783 187.568 44.3622 187.568 44.9688V50H186.395V48.9659H186.335C186.256 49.1316 186.123 49.3089 185.937 49.4979C185.752 49.6868 185.505 49.8475 185.197 49.9801C184.888 50.1127 184.512 50.179 184.068 50.179ZM184.247 49.125C184.711 49.125 185.102 49.0339 185.42 48.8516C185.742 48.6693 185.984 48.4339 186.146 48.1456C186.312 47.8572 186.395 47.554 186.395 47.2358V46.1619C186.345 46.2216 186.236 46.2763 186.067 46.326C185.901 46.3724 185.709 46.4138 185.49 46.4503C185.275 46.4834 185.064 46.5133 184.859 46.5398C184.656 46.563 184.492 46.5829 184.366 46.5994C184.061 46.6392 183.776 46.7038 183.511 46.7933C183.249 46.8795 183.037 47.0104 182.875 47.1861C182.716 47.3584 182.636 47.5937 182.636 47.892C182.636 48.2997 182.787 48.608 183.089 48.8168C183.394 49.0223 183.78 49.125 184.247 49.125ZM199.374 42.3636C199.315 41.8598 199.073 41.4688 198.649 41.1903C198.224 40.9119 197.704 40.7727 197.087 40.7727C196.637 40.7727 196.242 40.8456 195.904 40.9915C195.569 41.1373 195.308 41.3378 195.119 41.593C194.933 41.8482 194.84 42.1383 194.84 42.4631C194.84 42.7348 194.905 42.9685 195.034 43.1641C195.167 43.3563 195.336 43.517 195.541 43.6463C195.747 43.7723 195.962 43.8767 196.188 43.9595C196.413 44.0391 196.62 44.1037 196.809 44.1534L197.843 44.4318C198.108 44.5014 198.403 44.5975 198.728 44.7202C199.056 44.8428 199.369 45.0102 199.668 45.2223C199.969 45.4311 200.218 45.6996 200.413 46.0277C200.609 46.3558 200.707 46.7585 200.707 47.2358C200.707 47.786 200.563 48.2831 200.274 48.7273C199.989 49.1714 199.572 49.5244 199.021 49.7862C198.475 50.0481 197.81 50.179 197.028 50.179C196.299 50.179 195.667 50.0613 195.134 49.826C194.603 49.5907 194.186 49.2625 193.881 48.8416C193.579 48.4207 193.408 47.9318 193.369 47.375H194.641C194.675 47.7595 194.804 48.0777 195.029 48.3295C195.258 48.5781 195.546 48.7637 195.894 48.8864C196.246 49.0057 196.623 49.0653 197.028 49.0653C197.498 49.0653 197.921 48.9891 198.296 48.8366C198.67 48.6809 198.967 48.4654 199.185 48.1903C199.404 47.9119 199.514 47.5871 199.514 47.2159C199.514 46.8778 199.419 46.6027 199.23 46.3906C199.041 46.1785 198.793 46.0062 198.484 45.8736C198.176 45.741 197.843 45.625 197.485 45.5256L196.232 45.1676C195.437 44.9389 194.807 44.6125 194.343 44.1882C193.879 43.764 193.647 43.2088 193.647 42.5227C193.647 41.9527 193.801 41.4555 194.109 41.0312C194.421 40.6037 194.839 40.2723 195.362 40.0369C195.889 39.7983 196.478 39.679 197.127 39.679C197.783 39.679 198.367 39.7966 198.877 40.032C199.388 40.264 199.792 40.5821 200.09 40.9865C200.392 41.3909 200.551 41.8499 200.568 42.3636H199.374ZM203.43 50.0795C203.185 50.0795 202.974 49.9917 202.799 49.8161C202.623 49.6404 202.535 49.4299 202.535 49.1847C202.535 48.9394 202.623 48.7289 202.799 48.5533C202.974 48.3776 203.185 48.2898 203.43 48.2898C203.675 48.2898 203.886 48.3776 204.061 48.5533C204.237 48.7289 204.325 48.9394 204.325 49.1847C204.325 49.3471 204.283 49.4962 204.201 49.6321C204.121 49.768 204.013 49.8774 203.877 49.9602C203.745 50.0398 203.596 50.0795 203.43 50.0795ZM210.945 50H209.652L213.391 39.8182H214.663L218.402 50H217.109L214.067 41.429H213.987L210.945 50ZM211.422 46.0227H216.632V47.1165H211.422V46.0227ZM220.684 50.0795C220.439 50.0795 220.228 49.9917 220.052 49.8161C219.877 49.6404 219.789 49.4299 219.789 49.1847C219.789 48.9394 219.877 48.7289 220.052 48.5533C220.228 48.3776 220.439 48.2898 220.684 48.2898C220.929 48.2898 221.14 48.3776 221.315 48.5533C221.491 48.7289 221.579 48.9394 221.579 49.1847C221.579 49.3471 221.537 49.4962 221.454 49.6321C221.375 49.768 221.267 49.8774 221.131 49.9602C220.999 50.0398 220.85 50.0795 220.684 50.0795ZM227.781 50V39.8182H231.34C232.05 39.8182 232.635 39.9408 233.095 40.1861C233.556 40.428 233.899 40.7545 234.125 41.1655C234.35 41.5732 234.463 42.0256 234.463 42.5227C234.463 42.9602 234.385 43.3215 234.229 43.6065C234.076 43.8916 233.874 44.117 233.622 44.2827C233.374 44.4484 233.104 44.571 232.812 44.6506V44.75C233.124 44.7699 233.437 44.8793 233.752 45.0781C234.067 45.277 234.33 45.562 234.542 45.9332C234.754 46.3045 234.86 46.7585 234.86 47.2955C234.86 47.8059 234.744 48.2649 234.512 48.6726C234.28 49.0803 233.914 49.4034 233.414 49.642C232.913 49.8807 232.262 50 231.46 50H227.781ZM229.014 48.9062H231.46C232.265 48.9062 232.837 48.7505 233.175 48.4389C233.516 48.1241 233.687 47.7429 233.687 47.2955C233.687 46.9508 233.599 46.6326 233.424 46.3409C233.248 46.0459 232.998 45.8106 232.673 45.6349C232.348 45.456 231.964 45.3665 231.519 45.3665H229.014V48.9062ZM229.014 44.2926H231.301C231.672 44.2926 232.007 44.2197 232.305 44.0739C232.607 43.928 232.845 43.7225 233.021 43.4574C233.2 43.1922 233.289 42.8807 233.289 42.5227C233.289 42.0753 233.134 41.6958 232.822 41.3842C232.51 41.0694 232.017 40.9119 231.34 40.9119H229.014V44.2926ZM237.582 50.0795C237.337 50.0795 237.127 49.9917 236.951 49.8161C236.775 49.6404 236.687 49.4299 236.687 49.1847C236.687 48.9394 236.775 48.7289 236.951 48.5533C237.127 48.3776 237.337 48.2898 237.582 48.2898C237.828 48.2898 238.038 48.3776 238.214 48.5533C238.389 48.7289 238.477 48.9394 238.477 49.1847C238.477 49.3471 238.436 49.4962 238.353 49.6321C238.273 49.768 238.166 49.8774 238.03 49.9602C237.897 50.0398 237.748 50.0795 237.582 50.0795Z" fill="#252A2D"/>
</svg>
