<svg width="16" height="16" viewBox="0 0 16 16" fill="none" xmlns="http://www.w3.org/2000/svg">
<path d="M8.00006 0C3.58893 0 6.38573e-05 3.58887 6.38573e-05 8C6.38573e-05 9.37739 0.355852 10.7315 1.03063 11.9266L0.0129715 15.5584C-0.0204198 15.6777 0.0116291 15.8053 0.09789 15.894C0.164325 15.9625 0.25502 16 0.34789 16C0.375716 16 0.403971 15.9964 0.43145 15.9898L4.22153 15.051C5.37875 15.6722 6.6818 16 8.00006 16C12.4112 16 16.0001 12.4111 16.0001 8C16.0001 3.58887 12.4112 0 8.00006 0ZM5.09314 4.17391C5.23018 4.17391 5.36648 4.17582 5.48648 4.18139C5.61274 4.18765 5.7825 4.13339 5.94911 4.52921C6.12024 4.93547 6.5308 5.93341 6.58159 6.03533C6.63306 6.13689 6.66742 6.25532 6.59925 6.39062C6.53108 6.52593 6.49704 6.61101 6.39409 6.72962C6.29113 6.84823 6.17818 6.99379 6.08566 7.08492C5.98271 7.18614 5.87566 7.29551 5.99531 7.49864C6.11496 7.70177 6.52719 8.36579 7.13797 8.90353C7.92232 9.59432 8.58425 9.80876 8.78947 9.91033C8.99468 10.0119 9.11479 9.99468 9.23444 9.85938C9.35409 9.72372 9.74788 9.26732 9.88458 9.06454C10.0213 8.86176 10.158 8.89481 10.3465 8.96264C10.5351 9.03011 11.5448 9.52072 11.7501 9.62228C11.9553 9.72385 12.0926 9.77485 12.1441 9.85938C12.1956 9.94355 12.1957 10.3493 12.0245 10.8227C11.8534 11.2964 11.0324 11.7293 10.638 11.7874C10.2839 11.8392 9.83564 11.861 9.34381 11.7065C9.04573 11.6126 8.66339 11.4883 8.1733 11.2792C6.11312 10.4006 4.76742 8.35202 4.66447 8.21671C4.56186 8.08141 3.82615 7.11748 3.82615 6.11957C3.82615 5.12165 4.35638 4.63112 4.5449 4.42799C4.73342 4.22486 4.95609 4.17391 5.09314 4.17391Z" fill="#5E6A71"/>
</svg>
