<svg width="170" height="133" viewBox="0 0 170 133" fill="none" xmlns="http://www.w3.org/2000/svg">
<g clip-path="url(#clip0_94_735)">
<ellipse cx="85" cy="123.75" rx="85" ry="9" fill="#FEE0EC"/>
<path d="M32.2362 101.553C30.1469 100.339 28.7872 98.2816 28.5061 95.9071L20.0952 24.8622C19.8588 22.8686 20.42 20.8947 21.6753 19.3036C22.9308 17.7124 24.7208 16.7058 26.7156 16.4696L120.833 5.34061C122.821 5.10251 124.803 5.66536 126.395 6.92086C127.987 8.17554 128.994 9.96446 129.23 11.958L129.976 18.2576C130.14 19.6391 131.382 20.6281 132.775 20.4627C134.158 20.2994 135.146 19.0467 134.982 17.6652L134.236 11.3657C133.842 8.03578 132.166 5.05233 129.516 2.96424C126.867 0.876156 123.575 -0.0546811 120.24 0.337887L26.1228 11.467C22.791 11.8606 19.8057 13.5364 17.7168 16.1843C15.6275 18.8322 14.6941 22.1247 15.0884 25.4546L23.4993 96.4995C23.9621 100.404 26.2813 103.922 29.7038 105.909C30.1021 106.141 30.5378 106.25 30.9676 106.25C31.8365 106.25 32.6818 105.801 33.1494 104.996C33.849 103.794 33.4398 102.252 32.2362 101.553Z" fill="#FEE0EC"/>
<path d="M155 34.8802C155 27.9047 149.357 22.25 142.395 22.25H47.605C40.6434 22.25 35 27.9047 35 34.8802V106.62C35 113.595 40.6434 119.25 47.605 119.25H142.395C149.357 119.25 155 113.595 155 106.62V34.8802ZM40.042 106.327V34.5872C40.042 30.4083 43.323 27.3021 47.4934 27.3021H142.283C146.454 27.3021 149.958 30.4083 149.958 34.5872V90.8355L123.154 64.0343C122.171 63.0476 120.545 63.0476 119.562 64.0343L88.0768 95.5674L76.7184 84.2041C75.7337 83.2193 74.1344 83.2183 73.1506 84.2051L44.3056 113.161C41.7571 111.941 40.042 109.341 40.042 106.327ZM86.2203 100.865C86.2401 100.886 86.2539 100.911 86.2746 100.931C86.2956 100.952 86.3204 101.113 86.3419 101.133L99.2468 114.198H50.636L74.9306 89.7097L86.2203 100.865ZM142.283 114.198H106.381L91.6294 99.2843L121.372 69.4656L149.958 97.9794V106.327C149.958 110.506 146.454 114.198 142.283 114.198Z" fill="#CE0058"/>
<path d="M64.5634 60.9941C70.4503 60.9941 75.2397 56.1946 75.2397 50.2959C75.2397 44.3972 70.4503 39.5987 64.5634 39.5987C58.6764 39.5987 53.887 44.3972 53.887 50.2959C53.887 56.1946 58.6764 60.9941 64.5634 60.9941ZM64.5634 44.6508C67.6703 44.6508 70.1977 47.1828 70.1977 50.2959C70.1977 53.409 67.6703 55.942 64.5634 55.942C61.4564 55.942 58.929 53.4091 58.929 50.2959C58.929 47.1827 61.4565 44.6508 64.5634 44.6508Z" fill="#CE0058"/>
</g>
<defs>
<clipPath id="clip0_94_735">
<rect width="170" height="133" fill="white"/>
</clipPath>
</defs>
</svg>
